<?xml version="1.0" encoding="UTF-8"?>
<svg xmlns="http://www.w3.org/2000/svg" xmlns:xlink="http://www.w3.org/1999/xlink" width="288" height="288" viewBox="0 0 288 288">
<defs>
<clipPath id="clip-0">
<path clip-rule="nonzero" d="M 0 0 L 287.972656 0 L 287.972656 287.972656 L 0 287.972656 Z M 0 0 "/>
</clipPath>
</defs>
<g clip-path="url(#clip-0)">
<path fill-rule="evenodd" fill="rgb(100%, 100%, 100%)" fill-opacity="0" d="M 0 0 L 287.972656 0 L 287.972656 287.972656 L 0 287.972656 Z M 0 0 "/>
</g>
<path fill-rule="evenodd" fill="rgb(100%, 48.234558%, 34.901428%)" fill-opacity="1" stroke-width="11.99035" stroke-linecap="butt" stroke-linejoin="round" stroke="rgb(39.99939%, 39.99939%, 39.99939%)" stroke-opacity="1" stroke-miterlimit="10" d="M 232.441406 66.046875 L 232.441406 221.980469 L 267.902344 157.71875 L 267.902344 130.28125 Z M 232.441406 66.046875 " transform="matrix(1, 0, 0, -1, 0, 288)"/>
<path fill-rule="evenodd" fill="rgb(78.822327%, 12.940979%, 11.764526%)" fill-opacity="1" stroke-width="11.99035" stroke-linecap="butt" stroke-linejoin="round" stroke="rgb(39.99939%, 39.99939%, 39.99939%)" stroke-opacity="1" stroke-miterlimit="10" d="M 129.03125 73.132812 L 25.625 73.132812 L 25.625 214.867188 L 232.414062 214.867188 L 232.414062 73.132812 Z M 129.03125 73.132812 " transform="matrix(1, 0, 0, -1, 0, 288)"/>
<path fill-rule="evenodd" fill="rgb(39.99939%, 39.99939%, 39.99939%)" fill-opacity="1" d="M 13.71875 108.59375 L 13.746094 108.59375 C 13.324219 108.59375 12.898438 108.710938 12.558594 108.90625 C 12.1875 109.132812 11.90625 109.417969 11.679688 109.785156 C 11.480469 110.125 11.367188 110.550781 11.367188 110.976562 L 11.367188 120.445312 C 11.367188 120.839844 11.480469 121.265625 11.679688 121.605469 C 11.90625 121.976562 12.1875 122.257812 12.558594 122.484375 C 12.898438 122.683594 13.324219 122.796875 13.746094 122.796875 L 23.1875 122.796875 C 23.613281 122.796875 24.039062 122.683594 24.378906 122.484375 C 24.746094 122.257812 25.03125 121.976562 25.257812 121.605469 C 25.453125 121.265625 25.570312 120.839844 25.570312 120.445312 L 25.570312 110.949219 L 25.570312 110.976562 C 25.570312 110.550781 25.453125 110.125 25.257812 109.785156 C 25.03125 109.417969 24.746094 109.132812 24.378906 108.90625 C 24.039062 108.710938 23.613281 108.59375 23.1875 108.59375 Z M 13.71875 108.59375 "/>
<path fill-rule="evenodd" fill="rgb(39.99939%, 39.99939%, 39.99939%)" fill-opacity="1" d="M 13.71875 165.316406 L 13.746094 165.316406 C 13.324219 165.316406 12.898438 165.429688 12.558594 165.628906 C 12.1875 165.855469 11.90625 166.140625 11.679688 166.507812 C 11.480469 166.847656 11.367188 167.273438 11.367188 167.699219 L 11.367188 177.164062 C 11.367188 177.5625 11.480469 177.988281 11.679688 178.328125 C 11.90625 178.695312 12.1875 178.980469 12.558594 179.207031 C 12.898438 179.40625 13.324219 179.519531 13.746094 179.519531 L 23.1875 179.519531 C 23.613281 179.519531 24.039062 179.40625 24.378906 179.207031 C 24.746094 178.980469 25.03125 178.695312 25.257812 178.328125 C 25.453125 177.988281 25.570312 177.5625 25.570312 177.164062 L 25.570312 167.667969 L 25.570312 167.699219 C 25.570312 167.273438 25.453125 166.847656 25.257812 166.507812 C 25.03125 166.140625 24.746094 165.855469 24.378906 165.628906 C 24.039062 165.429688 23.613281 165.316406 23.1875 165.316406 Z M 13.71875 165.316406 "/>
<path fill-rule="evenodd" fill="rgb(100%, 25.097656%, 0%)" fill-opacity="1" d="M 12.8125 78.121094 L 12.8125 99.410156 L 19.929688 94.082031 L 19.929688 83.425781 Z M 12.8125 78.121094 "/>
<path fill-rule="evenodd" fill="rgb(100%, 25.097656%, 0%)" fill-opacity="1" d="M 12.839844 188.703125 L 12.839844 209.992188 L 19.957031 204.660156 L 19.957031 194.003906 Z M 12.839844 188.703125 "/>
<path fill-rule="evenodd" fill="rgb(100%, 100%, 0%)" fill-opacity="1" d="M 245.535156 107.859375 L 245.535156 129.144531 L 238.421875 123.816406 L 238.421875 113.160156 Z M 245.535156 107.859375 "/>
<path fill-rule="evenodd" fill="rgb(100%, 100%, 0%)" fill-opacity="1" d="M 245.535156 158.910156 L 245.535156 180.199219 L 238.421875 174.867188 L 238.421875 164.210938 Z M 245.535156 158.910156 "/>
<path fill="none" stroke-width="6.00935" stroke-linecap="butt" stroke-linejoin="round" stroke="rgb(39.99939%, 39.99939%, 39.99939%)" stroke-opacity="1" stroke-miterlimit="10" d="M 19.84375 143.121094 L 232.441406 143.121094 " transform="matrix(1, 0, 0, -1, 0, 288)"/>
<path fill-rule="evenodd" fill="rgb(100%, 48.234558%, 34.901428%)" fill-opacity="1" stroke-width="6.00935" stroke-linecap="butt" stroke-linejoin="round" stroke="rgb(39.99939%, 39.99939%, 39.99939%)" stroke-opacity="1" stroke-miterlimit="10" d="M 209.167969 143.09375 C 209.167969 138.671875 208.007812 134.335938 205.796875 130.507812 C 203.585938 126.679688 200.382812 123.476562 196.554688 121.265625 C 192.726562 119.054688 188.390625 117.894531 183.96875 117.894531 C 179.519531 117.894531 175.179688 119.054688 171.355469 121.265625 C 167.527344 123.476562 164.324219 126.679688 162.113281 130.507812 C 159.902344 134.335938 158.738281 138.671875 158.738281 143.09375 C 158.738281 147.542969 159.902344 151.878906 162.113281 155.707031 C 164.324219 159.535156 167.527344 162.738281 171.355469 164.949219 C 175.179688 167.160156 179.519531 168.320312 183.941406 168.320312 C 188.390625 168.320312 192.726562 167.160156 196.554688 164.949219 C 200.382812 162.738281 203.585938 159.535156 205.796875 155.707031 C 208.007812 151.878906 209.167969 147.542969 209.167969 143.09375 Z M 209.167969 143.09375 " transform="matrix(1, 0, 0, -1, 0, 288)"/>
<path fill-rule="evenodd" fill="rgb(100%, 0%, 0%)" fill-opacity="1" stroke-width="6.00935" stroke-linecap="butt" stroke-linejoin="round" stroke="rgb(39.99939%, 39.99939%, 39.99939%)" stroke-opacity="1" stroke-miterlimit="10" d="M 199.558594 143.148438 C 199.558594 140.398438 198.820312 137.707031 197.460938 135.324219 C 196.101562 132.945312 194.117188 130.960938 191.734375 129.601562 C 189.355469 128.238281 186.660156 127.503906 183.910156 127.503906 C 181.160156 127.503906 178.46875 128.238281 176.089844 129.601562 C 173.707031 130.960938 171.722656 132.945312 170.363281 135.324219 C 169.003906 137.707031 168.265625 140.398438 168.265625 143.148438 C 168.265625 145.898438 169.003906 148.59375 170.363281 150.972656 C 171.722656 153.355469 173.707031 155.339844 176.089844 156.699219 C 178.46875 158.058594 181.160156 158.796875 183.910156 158.796875 C 186.660156 158.796875 189.355469 158.058594 191.734375 156.699219 C 194.117188 155.339844 196.101562 153.355469 197.460938 150.972656 C 198.820312 148.59375 199.558594 145.898438 199.558594 143.148438 Z M 199.558594 143.148438 " transform="matrix(1, 0, 0, -1, 0, 288)"/>
<path fill-rule="evenodd" fill="rgb(39.99939%, 39.99939%, 39.99939%)" fill-opacity="1" stroke-width="6.00935" stroke-linecap="butt" stroke-linejoin="round" stroke="rgb(39.99939%, 39.99939%, 39.99939%)" stroke-opacity="1" stroke-miterlimit="10" d="M 133.511719 143.179688 C 133.511719 140.429688 132.773438 137.734375 131.414062 135.355469 C 130.054688 132.972656 128.070312 130.988281 125.6875 129.628906 C 123.308594 128.269531 120.613281 127.53125 117.863281 127.53125 C 115.113281 127.53125 112.421875 128.269531 110.039062 129.628906 C 107.660156 130.988281 105.675781 132.972656 104.316406 135.355469 C 102.953125 137.734375 102.21875 140.429688 102.21875 143.179688 C 102.21875 145.929688 102.953125 148.621094 104.316406 151.003906 C 105.675781 153.382812 107.660156 155.367188 110.039062 156.726562 C 112.421875 158.089844 115.113281 158.824219 117.863281 158.824219 C 120.613281 158.824219 123.308594 158.089844 125.6875 156.726562 C 128.070312 155.367188 130.054688 153.382812 131.414062 151.003906 C 132.773438 148.621094 133.511719 145.929688 133.511719 143.179688 Z M 133.511719 143.179688 " transform="matrix(1, 0, 0, -1, 0, 288)"/>
<path fill="none" stroke-width="6.00935" stroke-linecap="butt" stroke-linejoin="round" stroke="rgb(39.99939%, 39.99939%, 39.99939%)" stroke-opacity="1" stroke-miterlimit="10" d="M 19.84375 102.898438 L 232.441406 102.898438 " transform="matrix(1, 0, 0, -1, 0, 288)"/>
<path fill="none" stroke-width="6.00935" stroke-linecap="butt" stroke-linejoin="round" stroke="rgb(39.99939%, 39.99939%, 39.99939%)" stroke-opacity="1" stroke-miterlimit="10" d="M 19.84375 91.558594 L 232.441406 91.558594 " transform="matrix(1, 0, 0, -1, 0, 288)"/>
<path fill="none" stroke-width="6.00935" stroke-linecap="butt" stroke-linejoin="round" stroke="rgb(39.99939%, 39.99939%, 39.99939%)" stroke-opacity="1" stroke-miterlimit="10" d="M 19.84375 196.441406 L 232.441406 196.441406 " transform="matrix(1, 0, 0, -1, 0, 288)"/>
<path fill="none" stroke-width="6.00935" stroke-linecap="butt" stroke-linejoin="round" stroke="rgb(39.99939%, 39.99939%, 39.99939%)" stroke-opacity="1" stroke-miterlimit="10" d="M 19.84375 185.101562 L 232.441406 185.101562 " transform="matrix(1, 0, 0, -1, 0, 288)"/>
<path fill-rule="evenodd" fill="rgb(78.822327%, 12.940979%, 11.764526%)" fill-opacity="1" stroke-width="11.99035" stroke-linecap="butt" stroke-linejoin="round" stroke="rgb(39.99939%, 39.99939%, 39.99939%)" stroke-opacity="1" stroke-miterlimit="10" d="M 51.789062 73.132812 L 25.625 73.132812 L 25.625 214.867188 L 77.925781 214.867188 L 77.925781 73.132812 Z M 51.789062 73.132812 " transform="matrix(1, 0, 0, -1, 0, 288)"/>
</svg>
